<mxfile host="app.diagrams.net" modified="2023-09-10T23:45:06.134Z" agent="Mozilla/5.0 (Macintosh; Intel Mac OS X 10_15_7) AppleWebKit/537.36 (KHTML, like Gecko) Chrome/116.0.0.0 Safari/537.36" version="21.7.4" etag="KF9zno8k4ikFk_LBitw9" type="github">
  <diagram name="Page-1" id="8-B6SsMNKc747seWcMv_">
    <mxGraphModel>
      <root>
        <mxCell id="0" />
        <mxCell id="1" parent="0" />
      </root>
    </mxGraphModel>
  </diagram>
</mxfile>
